<?xml version="1.0" encoding="UTF-8"?> <svg xmlns="http://www.w3.org/2000/svg" width="3317" height="722" viewBox="0 0 3317 722" fill="none"><mask id="mask0_302_8" style="mask-type:luminance" maskUnits="userSpaceOnUse" x="0" y="0" width="3317" height="722"><path d="M3316.19 0.275391H0.185547V721.275H3316.19V0.275391Z" fill="white"></path></mask><g mask="url(#mask0_302_8)"><mask id="mask1_302_8" style="mask-type:luminance" maskUnits="userSpaceOnUse" x="4" y="0" width="3313" height="722"><path d="M3316.19 0.206055H4.18555V721.206H3316.19V0.206055Z" fill="white"></path></mask><g mask="url(#mask1_302_8)"><path d="M797.506 588.502C783.944 591.89 775.02 601.578 775.02 613.76C775.02 620.345 777.171 625.385 782.06 630.543L783.672 632.254L781.047 633.542C773.194 637.386 766.032 644.556 762.14 652.459C760.569 655.649 759.62 657.733 759.181 660.039C758.745 662.328 758.829 664.764 759.053 668.622C759.446 675.416 761.202 681.287 764.549 686.428C767.892 691.562 772.756 695.881 779.208 699.662C784.808 702.943 792.783 704.956 800.79 705.62C808.798 706.284 817.077 705.617 823.324 703.329C840.273 697.123 851.582 682.625 851.582 666.548V661.642L855.033 660.777C858.043 660.018 861.291 658.018 864.039 655.585C866.794 653.146 869.222 650.112 870.469 647.13L871.196 645.321C871.403 644.767 871.568 644.26 871.688 643.807C871.911 642.966 872.089 641.906 871.629 640.955C871.111 639.883 870.077 639.492 869.25 639.323C868.418 639.153 867.368 639.117 866.202 639.117C864.42 639.117 862.924 639.221 861.699 639.844C860.39 640.512 859.635 641.639 858.956 642.951C857.236 646.276 855.064 648.209 852.221 649.076C849.293 649.97 845.419 649.811 840.186 648.428C824.446 644.266 810.679 648.169 804.811 659.518C804.149 660.798 803.643 661.931 803.356 662.91C803.078 663.856 802.925 664.92 803.307 665.899C803.73 666.981 804.637 667.553 805.568 667.846C806.457 668.125 807.544 668.212 808.724 668.21C810.431 668.206 811.882 668.076 813.129 667.384C814.399 666.678 815.219 665.526 816.019 664.119C817.33 661.817 819.977 660.036 823.511 659.144C827.024 658.259 831.254 658.297 835.447 659.498C837.793 660.171 838.576 660.685 838.997 661.396C839.229 661.79 839.422 662.373 839.547 663.323C839.673 664.278 839.716 665.511 839.714 667.148C839.701 676.47 833.76 684.864 822.282 690.744C819.588 692.124 818.043 692.79 815.891 693.153C813.651 693.531 810.712 693.591 805.214 693.576C798.322 693.558 793.838 693.119 790.092 691.826C786.383 690.546 783.259 688.376 779.189 684.639C774.719 680.533 772.036 676.035 771.058 671.385C770.081 666.744 770.771 661.809 773.28 656.775C777.823 647.657 788.267 641.287 800.721 640.395L808.026 639.874L809.511 639.766V627.771L807.977 627.712L803.572 627.535C800.866 627.427 797.662 626.474 794.822 625.027C791.951 623.565 789.699 621.728 788.677 620.052C785.787 615.314 786.423 610.376 789.453 606.543C792.524 602.66 798.137 599.838 805.214 599.838C810.313 599.838 814.96 601.435 818.3 603.908C821.649 606.388 823.57 609.65 823.57 613.023C823.571 614.198 823.765 615.432 824.74 616.385C825.617 617.241 826.89 617.611 828.231 617.88C829.491 618.132 830.554 618.341 831.387 618.42C832.156 618.494 833.138 618.508 833.963 617.978C834.89 617.381 835.172 616.411 835.28 615.667C835.389 614.924 835.385 613.974 835.379 612.934C835.303 599.98 823.054 589.304 807.967 587.961C804.637 587.665 799.976 587.885 797.506 588.502Z" fill="#010101"></path><path fill-rule="evenodd" clip-rule="evenodd" d="M2527.6 588.462C2519.54 587.21 2516.01 587.206 2508.49 588.472C2491.08 591.404 2475.12 602.32 2466.33 617.309C2453.9 638.523 2456.2 665.915 2472.01 685.573C2474.87 689.123 2479.2 692.9 2483.88 696.162C2488.56 699.426 2493.71 702.25 2498.23 703.851C2502.45 705.342 2508.27 706.313 2514.04 706.702C2519.82 707.091 2525.73 706.906 2530.12 705.994C2534.25 705.137 2539.31 703.197 2544.06 700.832C2548.81 698.469 2553.36 695.622 2556.44 692.888L2560.98 688.847L2562.46 687.539L2560.86 686.369L2554.12 681.394L2553.14 680.667L2552.18 681.424L2548.17 684.57C2523.89 703.671 2488.65 695.931 2475.38 668.691C2460.95 639.104 2478.56 605.383 2511.18 600.172C2522.57 598.353 2535.17 601.498 2547.25 609.345L2549.17 610.496C2549.78 610.786 2550.51 611.015 2551.34 610.879C2552.12 610.749 2552.76 610.327 2553.28 609.896C2553.81 609.464 2554.41 608.867 2555.1 608.175L2559.22 604.056L2557.9 602.935L2555.28 600.713C2552.57 598.417 2547.46 595.639 2542.23 593.329C2537 591.014 2531.38 589.049 2527.6 588.462Z" fill="#010101"></path><path fill-rule="evenodd" clip-rule="evenodd" d="M2413.04 705.974H2401.21V614.655L2378.1 640.926C2370.97 649.025 2364.4 656.425 2359.54 661.819C2357.12 664.514 2355.12 666.711 2353.69 668.249C2352.98 669.017 2352.41 669.631 2351.99 670.058C2351.88 670.171 2351.78 670.278 2351.68 670.373L2351.45 670.595C2351.38 670.654 2351.31 670.719 2351.25 670.776C2351.21 670.806 2351.15 670.849 2351.09 670.894C2351.05 670.921 2350.89 671.034 2350.67 671.11C2350.18 671.276 2349.77 671.158 2349.64 671.12C2349.48 671.068 2349.35 671.001 2349.28 670.963C2349.14 670.882 2349.02 670.79 2348.94 670.727C2348.76 670.59 2348.56 670.411 2348.36 670.215C2347.93 669.813 2347.36 669.227 2346.66 668.495C2345.26 667.022 2343.31 664.88 2340.93 662.242C2336.19 656.963 2329.75 649.652 2322.79 641.575L2300.27 615.441L2300.01 657.847V705.974H2288.18V646.304L2288.14 622.471C2288.16 615.436 2288.19 609.358 2288.25 604.39C2288.32 599.429 2288.41 595.559 2288.52 592.936C2288.57 591.63 2288.63 590.6 2288.7 589.898C2288.74 589.558 2288.78 589.231 2288.84 588.973C2288.87 588.865 2288.92 588.65 2289.03 588.433C2289.08 588.335 2289.21 588.081 2289.49 587.862C2289.76 587.655 2290.15 587.483 2290.59 587.509L2291.05 587.607L2291.47 587.823C2291.52 587.857 2291.59 587.921 2291.62 587.951C2291.71 588.019 2291.79 588.094 2291.87 588.167C2292.03 588.318 2292.23 588.517 2292.46 588.757C2292.93 589.243 2293.56 589.939 2294.36 590.812C2295.95 592.563 2298.18 595.071 2300.89 598.137C2306.3 604.27 2313.63 612.671 2321.56 621.871C2329.49 631.064 2336.78 639.423 2342.15 645.478C2344.84 648.506 2347.05 650.958 2348.6 652.646C2349.17 653.26 2349.65 653.764 2350.03 654.16L2350.34 653.843C2350.67 653.504 2351.06 653.104 2351.5 652.636C2353.08 650.948 2355.32 648.497 2358.06 645.468C2363.53 639.413 2370.96 631.055 2379.04 621.862C2387.12 612.662 2394.58 604.259 2400.07 598.127C2402.82 595.062 2405.08 592.561 2406.69 590.812L2406.79 590.698C2407.54 589.887 2408.16 589.216 2408.6 588.757C2408.83 588.519 2409.09 588.259 2409.24 588.112C2409.3 588.06 2409.35 588.006 2409.4 587.961C2409.43 587.936 2409.52 587.873 2409.56 587.84C2409.61 587.808 2409.75 587.704 2409.94 587.627L2410.55 587.509C2410.76 587.51 2410.97 587.555 2411.16 587.636C2411.5 587.776 2411.7 587.997 2411.8 588.118C2411.98 588.34 2412.06 588.562 2412.09 588.638C2412.15 588.82 2412.19 589.01 2412.2 589.121C2412.25 589.375 2412.28 589.712 2412.31 590.094C2412.37 590.878 2412.43 592.025 2412.48 593.477C2412.59 596.386 2412.69 600.606 2412.77 605.816C2412.94 616.24 2413.04 630.666 2413.04 646.569V705.974Z" fill="#010101"></path><path fill-rule="evenodd" clip-rule="evenodd" d="M2198.68 590.694C2192.92 589.756 2185.58 589.495 2174.46 589.495H2152.59V705.974H2154.19L2171.18 705.955C2193.58 705.926 2201.72 704.756 2211.92 699.76C2225.99 692.87 2236.74 679.755 2241.39 663.903C2242.7 659.437 2243.28 653.009 2243.2 646.658C2243.12 640.304 2242.39 633.819 2240.97 629.226C2236.8 615.73 2226.12 602.741 2213.59 595.925C2208.72 593.274 2204.51 591.643 2198.68 590.694ZM2195.02 693.084C2191.98 693.652 2183.49 694.146 2176.16 694.146H2164.42V601.322H2178.35C2187.52 601.322 2193.86 601.785 2199.04 603.043C2204.17 604.289 2208.24 606.334 2212.83 609.621C2245.1 632.725 2233.67 685.87 2195.02 693.084Z" fill="#010101"></path><path fill-rule="evenodd" clip-rule="evenodd" d="M1977.98 588.836C1985.02 589.08 1990.83 590.3 1995.87 592.857C2000.91 595.418 2005.07 599.263 2008.92 604.567C2009.91 605.934 2010.69 607.11 2011.23 608.116C2011.74 609.092 2012.15 610.122 2012.09 611.154C2012.03 612.326 2011.42 613.196 2010.59 613.819C2009.83 614.39 2008.81 614.81 2007.72 615.195C2006.92 615.474 2006.21 615.711 2005.59 615.844C2004.97 615.978 2004.3 616.049 2003.62 615.884C2002.2 615.539 2001.41 614.335 2000.76 613.308C1994.83 604.015 1985.79 599.712 1973.17 600.467C1965.23 600.942 1959.88 602.914 1955.97 606.602L1954.38 608.293C1952.18 610.908 1951.1 613.433 1950.98 615.903C1950.85 618.374 1951.66 620.997 1953.6 623.818C1957.54 629.537 1965.9 635.749 1979.12 642.509C2000.7 653.537 2009.62 661.481 2011.67 673.135C2012.29 676.695 2011.76 680.761 2010.43 684.57C2009.1 688.388 2006.91 692.078 2004.12 694.874C1995.73 703.256 1983.19 706.726 1971.15 705.817C1959.11 704.907 1947.28 699.596 1940.36 690.046C1939.33 688.632 1938.52 687.432 1937.96 686.409C1937.42 685.415 1937 684.383 1937.01 683.351C1937.04 682.184 1937.6 681.294 1938.4 680.627C1939.13 680.019 1940.13 679.536 1941.19 679.094L1941.47 678.98C1942.21 678.671 1942.97 678.352 1943.66 678.219C1944.61 678.035 1945.53 678.17 1946.43 678.769C1947.2 679.279 1947.91 680.099 1948.68 681.099C1949.39 682.031 1950.26 683.273 1951.36 684.847L1951.72 685.366C1952.05 685.829 1952.95 686.674 1954.3 687.687C1955.6 688.663 1957.17 689.687 1958.68 690.509C1966.07 694.528 1975.5 695.076 1983.55 692.937C1991.66 690.782 1997.86 686.06 1999.49 680.037C2000.07 677.861 2000.11 675.854 1999.6 673.912C1999.07 671.959 1997.97 669.969 1996.12 667.885C1992.39 663.676 1985.8 659.255 1975.65 654.081C1959.83 646.016 1950.86 639.664 1944.81 632.008C1942.35 628.901 1940.7 626.026 1939.82 622.992C1938.93 619.945 1938.86 616.844 1939.42 613.327C1941.24 601.986 1950.82 592.793 1963.62 589.563C1964.91 589.24 1967.19 589.018 1969.71 588.895C1972.27 588.769 1975.23 588.741 1977.98 588.836Z" fill="#010101"></path><path fill-rule="evenodd" clip-rule="evenodd" d="M1865.41 590.665C1859.55 589.688 1851.16 589.495 1837.09 589.495H1810.31L1810.32 591.097L1810.88 703.841L1810.89 705.433H1822.18V654.189L1833.79 654.219L1846.13 654.228L1879.54 705.257L1880.02 705.974H1893.73L1892.24 703.536L1889.75 699.495C1888.37 697.241 1881.03 685.957 1873.46 674.443C1869.67 668.687 1866.23 663.374 1863.74 659.449C1862.49 657.485 1861.48 655.87 1860.79 654.73L1860.56 654.356C1861.38 654.145 1862.46 653.929 1863.67 653.766C1869.57 652.972 1875.36 650.467 1880.06 647.012C1884.74 643.566 1888.45 639.08 1890.06 634.22C1890.98 631.428 1891.29 626.154 1891 620.613C1890.8 616.824 1890.56 614.231 1889.99 612.02C1889.4 609.763 1888.49 607.969 1887.11 605.727C1885.26 602.735 1881.62 598.681 1878.93 596.623C1874.82 593.491 1871.42 591.666 1865.41 590.665ZM1842.93 642.165L1822.18 642.489V601.185L1842.39 601.509C1852.64 601.673 1858.1 601.81 1861.61 602.188C1864.99 602.551 1866.47 603.123 1868.76 604.252C1871.8 605.748 1874.58 608.146 1876.22 610.633C1877.46 612.498 1878.05 613.664 1878.4 615.235C1878.76 616.895 1878.85 619.081 1878.85 623.032C1878.85 628.351 1878.43 631.369 1877.23 633.552C1876.05 635.682 1873.98 637.261 1869.96 639.294C1867.53 640.522 1866.13 641.125 1862.75 641.496C1859.23 641.883 1853.66 641.998 1842.93 642.165Z" fill="#010101"></path><path fill-rule="evenodd" clip-rule="evenodd" d="M1758.59 694.146H1726.25H1697.1V653.108H1748.89V641.28H1721.39H1697.1V601.322H1758.59V589.495H1721.93H1685.27V705.974H1758.59V694.146Z" fill="#010101"></path><path fill-rule="evenodd" clip-rule="evenodd" d="M1626.53 589.495H1632.45V648.27C1632.45 663.999 1632.35 678.306 1632.19 688.68C1632.12 693.865 1632.02 698.079 1631.92 700.999C1631.87 702.454 1631.82 703.606 1631.76 704.401C1631.73 704.793 1631.7 705.139 1631.66 705.394C1631.65 705.51 1631.62 705.67 1631.57 705.827C1631.55 705.894 1631.5 706.06 1631.4 706.24C1631.34 706.33 1631.23 706.5 1631.04 706.662C1630.84 706.834 1630.48 707.056 1629.99 707.056C1629.66 707.056 1629.41 706.953 1629.35 706.928C1629.26 706.887 1629.18 706.842 1629.15 706.82C1629.07 706.774 1629.01 706.731 1628.99 706.712C1628.96 706.69 1628.92 706.659 1628.89 706.633C1628.82 706.571 1628.69 706.453 1628.6 706.368C1628.42 706.193 1628.17 705.939 1627.85 705.62C1627.2 704.977 1626.27 704.028 1625.08 702.818C1622.72 700.398 1619.33 696.895 1615.18 692.583C1606.89 683.955 1595.54 672.055 1583.24 658.967L1541.25 614.301L1540.71 705.974H1528.91V646.658C1528.91 630.781 1528.96 616.342 1529.05 605.875C1529.09 600.642 1529.14 596.397 1529.2 593.457C1529.23 591.989 1529.26 590.835 1529.29 590.045C1529.31 589.655 1529.33 589.333 1529.35 589.101C1529.36 588.993 1529.37 588.857 1529.39 588.742C1529.4 588.69 1529.42 588.576 1529.46 588.452C1529.48 588.394 1529.53 588.234 1529.65 588.059C1529.71 587.966 1530.13 587.332 1530.99 587.332L1531.58 587.45C1531.68 587.488 1531.76 587.524 1531.8 587.548C1531.88 587.595 1531.95 587.643 1531.98 587.666C1532.04 587.714 1532.1 587.764 1532.13 587.794C1532.18 587.835 1532.23 587.889 1532.29 587.941L1532.38 588.03L1532.5 588.15C1532.67 588.311 1532.89 588.52 1533.14 588.767C1533.77 589.406 1534.68 590.35 1535.84 591.549C1538.16 593.95 1541.47 597.42 1545.54 601.696C1553.69 610.254 1564.85 622.056 1577.07 635.036C1589.29 648.015 1600.5 659.858 1608.72 668.475C1612.83 672.783 1616.19 676.285 1618.56 678.72C1618.88 679.05 1619.18 679.358 1619.47 679.645C1619.67 679.844 1619.85 680.034 1620.03 680.214C1620.03 680.18 1620.04 680.141 1620.04 680.106C1620.15 677.822 1620.25 674.478 1620.34 670.314C1620.5 661.983 1620.61 650.412 1620.61 637.573V589.495H1626.53Z" fill="#010101"></path><path fill-rule="evenodd" clip-rule="evenodd" d="M1484.16 589.495H1436.17H1388.17V601.322H1430.25V705.974H1441.48L1441.83 651.79L1442.09 601.322H1484.16V589.495Z" fill="#010101"></path><path fill-rule="evenodd" clip-rule="evenodd" d="M1292.78 589.495C1311.61 589.495 1318.8 589.86 1323.69 591.235C1330.75 593.215 1336.44 596.856 1340.5 601.932C1344.55 607.007 1346.88 613.432 1347.36 620.868C1347.92 629.551 1346.02 636.798 1341.54 642.342C1337.07 647.874 1330.2 651.508 1321.23 653.304L1316.27 654.297L1331.16 676.97C1335.61 683.751 1339.72 690.123 1342.74 694.864C1344.25 697.234 1345.48 699.212 1346.34 700.626C1346.76 701.328 1347.11 701.901 1347.35 702.327C1347.47 702.537 1347.58 702.737 1347.66 702.897C1347.69 702.974 1347.74 703.066 1347.77 703.162C1347.79 703.202 1347.9 703.485 1347.9 703.821C1347.9 704.593 1347.42 705.07 1347.12 705.286C1346.84 705.491 1346.54 705.601 1346.34 705.66C1345.91 705.782 1345.4 705.847 1344.92 705.886C1343.94 705.964 1342.65 705.967 1341.4 705.964L1336.82 705.955H1335.95L1335.48 705.237L1302.01 654.189H1278.54V705.974H1266.71V589.495H1292.78ZM1297.25 642.361C1312.08 642.361 1318.81 641.912 1322.41 640.837C1326.8 639.525 1330.11 637.268 1332.33 634.289C1334.55 631.311 1335.76 627.5 1335.76 622.923C1335.76 614.568 1331.84 608.112 1324.2 603.997C1322.42 603.043 1321.07 602.511 1317.71 602.168C1314.23 601.813 1308.75 601.669 1298.76 601.509L1278.54 601.185V642.361H1297.25Z" fill="#010101"></path><path fill-rule="evenodd" clip-rule="evenodd" d="M1171.35 587.882C1172.01 587.852 1172.51 588.167 1172.79 588.443C1173.06 588.696 1173.24 588.99 1173.35 589.209C1173.48 589.445 1173.59 589.71 1173.69 589.967C1174.15 591.14 1184.53 616.728 1196.76 646.845C1202.88 661.904 1208.55 676.143 1212.68 686.615C1214.75 691.85 1216.43 696.145 1217.6 699.131L1218.94 702.582C1219.03 702.812 1219.11 703.017 1219.17 703.184L1219.29 703.487C1219.33 703.589 1219.37 703.671 1219.39 703.723L1220.26 705.974H1207.75L1199.91 686.635L1193.06 669.812L1170.55 669.537C1161.48 669.425 1155.59 669.432 1151.88 669.596C1150.02 669.678 1148.78 669.803 1147.99 669.95C1147.69 670.004 1147.5 670.066 1147.38 670.107L1147.33 670.212L1147.28 670.314C1147.14 670.597 1146.96 670.981 1146.74 671.454C1146.3 672.402 1145.72 673.692 1145.04 675.23C1143.67 678.305 1141.91 682.367 1140.07 686.664C1138.22 690.99 1136.11 695.595 1134.47 699.112C1133.64 700.87 1132.94 702.358 1132.43 703.408L1131.84 704.637L1131.69 704.962L1131.64 705.07L1131.19 705.974H1118.7L1119.74 703.713C1119.74 703.713 1119.77 703.632 1119.86 703.438L1119.98 703.146L1120.2 702.631L1120.64 701.613C1120.88 701.058 1121.19 700.359 1121.51 699.613L1123.25 695.57C1124.09 693.623 1125.08 691.307 1126.15 688.827C1130.02 679.854 1135.24 667.735 1140.71 655.045C1151.66 629.662 1163.62 601.977 1167.75 592.601C1168.21 591.551 1168.6 590.699 1168.94 590.055C1169.24 589.473 1169.6 588.85 1170.05 588.443C1170.29 588.223 1170.73 587.91 1171.35 587.882ZM1171.11 615.962C1170.71 616.69 1170.22 617.615 1169.66 618.745C1167.82 622.442 1165.26 628.121 1162.06 635.587C1159.31 641.994 1156.86 647.864 1155.12 652.154C1154.26 654.289 1153.57 656.025 1153.12 657.237C1154.1 657.264 1155.42 657.297 1157 657.306C1160.59 657.327 1165.48 657.298 1170.82 657.217L1187.92 656.952L1179.85 637.003C1177.39 630.927 1175.06 625.257 1173.27 621.016C1172.41 618.948 1171.66 617.225 1171.11 615.962Z" fill="#010101"></path><path fill-rule="evenodd" clip-rule="evenodd" d="M1038.47 589.495C1052.14 589.495 1060.24 589.674 1066.05 590.635C1071.98 591.618 1075.54 593.42 1080.15 596.515C1087.44 601.411 1092.01 610.204 1092.83 620.367C1093.31 626.306 1092.56 631.593 1090.49 636.157C1088.42 640.73 1085.07 644.487 1080.52 647.435C1071.99 652.96 1064.35 654.189 1042.21 654.189H1024.07V705.974H1012.25V589.495H1038.47ZM1041.31 642.361C1054.12 642.361 1062.1 641.9 1067.6 640.493C1072.94 639.126 1075.9 636.871 1078.69 633.109C1080.67 630.431 1081.51 626.015 1081.04 621.291C1080.58 616.6 1078.87 611.96 1076.19 608.913C1073.46 605.802 1070.73 603.952 1065.93 602.837C1060.99 601.688 1053.89 601.323 1042.4 601.322H1024.07V642.361H1041.31Z" fill="#010101"></path><path fill-rule="evenodd" clip-rule="evenodd" d="M85.0824 414.386H170.539C210.864 414.386 245.027 409.532 273.03 399.825C283.762 396.012 293.693 391.665 302.822 386.785C317.833 378.76 330.678 369.292 341.357 358.38C345.082 354.656 348.588 350.788 351.876 346.777C364.076 331.892 373.265 315.038 379.441 296.214C387.282 272.318 391.203 246.368 391.203 218.366C391.203 190.363 387.282 164.413 379.441 140.517C371.601 116.621 358.906 95.8992 341.357 78.3507C324.182 60.8022 301.407 47.174 273.03 37.4663C245.027 27.3853 210.864 22.3447 170.539 22.3447L85.0824 22.3448H84.5223L3.67773 22.3447V29.3853C5.91797 29.3853 8.71827 29.7586 12.0786 30.5054C15.439 31.2521 18.6127 32.7456 21.5996 34.9858C24.96 36.8527 27.5736 39.653 29.4405 43.3868C31.6807 46.7471 32.8008 51.2276 32.8008 56.8282V379.903C32.8008 385.503 31.6807 390.171 29.4405 393.904C27.5736 397.265 24.96 400.065 21.5996 402.305C18.6127 404.172 15.439 405.479 12.0786 406.226C8.71827 406.972 5.91797 407.346 3.67773 407.346V414.386H84.5223H85.0824ZM233.229 394.026C250.969 386.862 265.666 376.278 277.755 362.827C278.896 361.557 280.014 360.261 281.11 358.94C293.805 343.632 303.326 324.217 309.673 300.694C316.02 277.172 319.194 249.729 319.194 218.366C319.194 187.002 316.02 159.559 309.673 136.037C303.326 112.514 293.805 93.0989 281.11 77.7906C268.415 62.4823 252.645 51.4563 233.229 43.9888C213.814 36.148 188.94 33.8657 163.178 33.8657L85.0824 33.8658V402.865H163.178C188.94 402.865 213.814 401.493 233.229 394.026Z" fill="#010101"></path><path d="M461.083 17.1641C486.229 18.0861 534.847 23.5345 578.687 50.0225V50.1064C635.77 84.4737 667.689 141.892 667.689 220.435C667.689 298.978 635.77 356.311 578.687 390.764C534.763 417.167 486.145 422.616 461.083 423.538L449.601 423.706L444.737 423.538C419.591 422.7 370.973 417.251 327.133 390.764C325.888 390.016 324.661 389.249 323.449 388.468C333.264 381.994 342.108 374.769 349.937 366.77L349.936 366.769C350.285 366.418 350.63 366.064 350.977 365.712C354.003 369.043 357.17 372.184 360.494 375.089C384.134 395.709 415.148 406.185 452.868 406.185C490.588 406.103 521.602 395.875 545.157 375.255C579.944 344.828 597.632 292.774 597.632 220.519C597.632 148.263 580.029 96.2092 545.157 65.7812C521.521 45.1608 490.506 34.6826 452.783 34.6826C415.064 34.6827 383.965 45.0769 360.413 65.6973C357.782 67.9839 355.275 70.41 352.864 72.958C352.159 72.2172 351.448 71.4806 350.728 70.75L349.846 69.8613C342.85 62.7259 335.053 56.2351 326.48 50.374C326.67 50.2569 326.86 50.1392 327.051 50.0225C370.973 23.5346 419.59 18.0861 444.652 17.1641L447.672 16.9961L461.083 17.1641Z" fill="#010101"></path><path d="M278.116 93.7568C286.526 106.118 293.238 121.18 298.09 139.159C304.096 161.419 307.196 187.769 307.196 218.361C307.196 248.954 304.097 275.304 298.09 297.564C292.972 316.532 285.78 332.249 276.712 344.978C252.561 312.522 238.132 271.205 238.132 220.351C238.132 168.853 253.067 126.507 278.116 93.7568Z" fill="#010101"></path><path d="M2820.16 23.6502V37.5648L2825.19 38.4869C2839.19 41.0854 2847.74 46.1986 2852.27 53.072C2857.13 60.2808 2860.14 73.1057 2860.14 92.9718V328.012L2650.42 47.3722L2650.34 47.1205L2647.9 44.2707C2635.66 30.6913 2620.49 23.5664 2602.81 23.5664H2543.38V37.481L2548.41 38.4031C2562.4 41.0016 2570.95 46.1148 2575.48 52.9882C2580.26 60.1133 2583.19 73.0219 2583.19 92.888V348.547C2583.19 368.582 2580.26 381.575 2575.56 388.699C2571.04 395.405 2562.4 400.519 2548.41 403.285L2543.46 404.289V418.206H2651.84V404.289L2646.9 403.367C2632.48 400.603 2623.76 395.489 2619.24 388.868C2614.63 381.659 2611.77 368.667 2611.77 348.632V81.991L2861.57 415.859L2863.4 418.288H2888.9V92.9718C2888.9 73.0219 2891.74 60.1133 2896.35 52.9882C2900.71 46.2824 2909.17 41.0854 2923.59 38.4869L2928.63 37.5648V23.5664H2820.24L2820.16 23.6502Z" fill="#010101"></path><path d="M3298.04 403.538C3284.29 400.018 3274.06 393.984 3266.69 385.516L3265.25 383.84C3257.55 373.865 3250.18 359.363 3243.38 340.084L3243.3 339.918L3138.09 64.1394C3133.34 51.9013 3125.52 42.0939 3114.89 34.8013C3103.9 27.1734 3087.57 23.6528 3074.97 23.6528H3033.67V37.6513L3038.78 38.5733C3048.82 40.3336 3055.04 42.8483 3058.38 45.4468C3061.39 47.7939 3063.16 51.1467 3063.16 56.5114C3063.16 59.4452 3062.4 63.6364 3060.74 69.2524L2956.97 346.539L2956.88 346.708C2950.5 365.483 2943.64 378.644 2936.5 386.941C2929.81 394.569 2919.74 400.271 2905.74 403.456L2900.96 404.544V418.293H2934.67C2947.49 418.293 2962.48 411.669 2969.28 397.588V397.42L2969.45 397.167L3010.61 286.522H3167.19L3203.57 381.661C3207.76 392.724 3214.7 401.778 3224.26 408.483C3233.82 415.023 3244.56 418.293 3256.29 418.293H3302.48V404.713L3297.95 403.538H3298.04ZM3024.11 249.807L3088.07 79.2275L3153.19 249.807H3024.11Z" fill="#010101"></path><path d="M2526.37 403.539C2511.78 399.766 2501.05 393.145 2493.68 383.839C2485.88 373.866 2478.59 359.364 2471.8 340.085L2471.72 339.917L2366.52 64.1391L2365.6 61.792C2360.74 50.6437 2353.27 41.5907 2343.3 34.8011C2332.32 27.1732 2315.97 23.6526 2303.4 23.6526H2262.08V37.651L2267.19 38.5731C2277.16 40.3334 2283.45 42.8481 2286.72 45.4466H2286.89C2289.82 47.7936 2291.5 51.1464 2291.5 56.5111C2291.5 59.445 2290.83 63.6361 2289.15 69.2522L2248.5 177.803C2241.03 196.412 2234.33 213.763 2228.13 229.941C2205.16 289.707 2189.07 331.282 2164.42 358.189C2140.45 384.426 2107.76 397.337 2049.5 397.337C2006.58 396.077 1972.13 381.578 1943.21 349.473C1914.04 317.199 1896.61 274.786 1891.08 221.81C1890.32 215.607 1889.99 209.656 1889.99 203.956C1889.99 171.852 1896.27 143.771 1908.68 119.546C1921 95.1536 1938.85 76.2097 1962.16 62.6302C1985.38 48.8834 2013.54 41.926 2046.82 41.926C2060.9 41.926 2073.47 43.4348 2084.54 46.3685H2084.62C2095.69 49.1348 2107.17 53.7451 2119.16 60.2831C2139.95 71.5993 2156.29 94.2317 2167.44 129.772L2168.78 134.047H2183.2V18.2041H2168.28L2166.43 27.257C2166.01 29.7717 2165.18 32.7893 2164.17 36.4775C2163.16 39.7466 2161.91 42.7642 2160.32 45.6142V45.7818C2159.39 47.542 2158.47 48.4642 2157.8 48.9672C2156.37 49.1348 2153.94 48.9672 2150.09 47.7099C2145.73 46.2848 2140.2 43.8539 2133.49 40.2495L2132.99 39.9981L2132.57 39.8304L2132.15 39.6628C2132.15 39.6628 2132.15 39.6628 2131.98 39.579H2131.81L2126.28 36.9804C2113.37 31.1966 2101.13 26.754 2089.65 23.6526C2076.32 20.0482 2061.74 18.2041 2045.81 18.2041C2007.09 18.2041 1972.13 26.8379 1940.95 44.0216C1909.85 61.1215 1885.21 85.0947 1867.19 115.774C1849.16 146.453 1840.2 181.743 1840.2 221.391C1840.2 261.039 1848.41 295.574 1864.92 326.252C1881.52 356.682 1905.24 380.571 1936 397.837C1966.85 415.19 2003.23 423.74 2045.31 423.74H2049.17C2070.79 423.824 2107.09 423.99 2143.3 407.309C2179.84 390.462 2215.72 356.932 2237.43 290.964L2239.11 286.521H2395.69L2432.07 381.66C2436.26 392.726 2443.22 401.779 2452.77 408.484H2452.86C2462.41 415.021 2473.14 418.291 2484.88 418.291H2531.06V404.711L2526.45 403.539H2526.37ZM2316.48 79.2273L2381.61 249.807H2252.52L2316.48 79.2273Z" fill="#010101"></path></g><path d="M1556.72 21.6597V35.6581L1561.75 36.5801C1575.75 39.0948 1584.21 44.2919 1588.82 51.0816C1593.77 58.2902 1596.78 71.1991 1596.78 91.0652V326.105L1387.06 45.3815H1386.98L1386.89 45.2139C1374.15 29.7067 1358.22 21.6597 1339.36 21.6597H1279.85V35.6581L1284.88 36.5801C1298.88 39.0948 1307.43 44.2919 1311.95 51.0816C1316.73 58.2064 1319.67 71.1153 1319.67 91.0652V346.641C1319.67 366.76 1316.73 379.668 1312.04 386.792C1307.43 393.498 1298.88 398.696 1284.8 401.463L1279.85 402.382V416.299H1388.23V402.382L1383.29 401.463C1368.87 398.696 1360.15 393.498 1355.63 386.877C1351.02 379.752 1348.17 366.76 1348.17 346.641V80.0004L1597.96 413.867L1599.8 416.299H1625.28V91.0652C1625.28 71.1153 1628.14 58.2064 1632.75 50.9976C1637.1 44.2919 1645.57 39.0948 1660.07 36.5801L1665.1 35.6581V21.6597H1556.72Z" fill="#010101"></path><path d="M1697.21 401.413C1708.27 398.812 1715.9 395.292 1720.68 391.1C1725.12 386.911 1728.3 381.043 1729.89 373.247C1731.4 364.866 1732.24 353.884 1732.24 340.054V97.8055C1732.24 83.9756 1731.41 72.9936 1729.9 64.6124C1728.3 56.816 1725.12 50.9483 1720.68 46.7591C1715.9 42.5671 1708.27 39.047 1697.21 36.4464L1692.43 35.3583V21.6099H1818.78V35.3586L1814.08 36.4464C1802.94 39.047 1795.47 42.6514 1790.87 46.7591C1786.26 50.9483 1783.07 56.7317 1781.64 64.5281V64.6968C1779.88 72.9936 1779.05 83.9756 1779.05 97.8055V340.054C1779.05 353.884 1779.88 364.866 1781.64 373.163V373.331C1783.07 381.128 1786.25 386.911 1790.86 391.1C1795.47 395.208 1802.93 398.812 1814.08 401.413L1818.78 402.501V416.25H1692.43V402.501L1697.21 401.413Z" fill="#010101"></path><path d="M1137.25 401.413C1148.31 398.812 1155.94 395.292 1160.72 391.1C1165.16 386.911 1168.35 381.043 1169.94 373.247C1171.45 364.866 1172.29 353.884 1172.29 340.054V97.8055C1172.29 83.9756 1171.45 72.9936 1169.94 64.6124C1168.35 56.816 1165.16 50.9483 1160.72 46.7591C1155.94 42.5671 1148.31 39.047 1137.25 36.4464L1132.47 35.3583V21.6099H1258.82V35.3586L1254.13 36.4464C1242.98 39.047 1235.52 42.6514 1230.91 46.7591C1226.3 50.9483 1223.11 56.7317 1221.69 64.5281V64.6968C1219.93 72.9936 1219.09 83.9756 1219.09 97.8055V340.054C1219.09 353.884 1219.93 364.866 1221.69 373.163V373.331C1223.11 381.128 1226.3 386.911 1230.91 391.1C1235.52 395.208 1242.98 398.812 1254.13 401.413L1258.82 402.501V416.25H1132.47V402.501L1137.25 401.413Z" fill="#010101"></path><path d="M1063.09 64.6564C1064.69 56.777 1067.87 50.9931 1072.4 46.7182C1077.09 42.4432 1084.72 38.8388 1096.04 36.408L1100.9 35.4021V21.5713H1011.71L869.21 304.222L766.361 50.9931V50.7418L766.192 50.4901L764.432 47.2212C760.075 39.7609 754.207 33.7256 746.829 29.283C742.387 26.5168 736.688 24.5889 731.239 23.4154C725.706 22.158 719.923 21.5713 715.062 21.5713H666.191V35.4859L671.221 36.408C685.22 39.0065 693.77 44.1197 698.296 50.9931C703.073 58.1181 706.009 71.0268 706.009 90.8929V346.552C706.009 366.587 703.073 379.579 698.381 386.704C693.854 393.409 685.22 398.524 671.221 401.29L666.276 402.294V416.211H774.658V402.294L769.712 401.372C755.295 398.608 746.579 393.494 742.053 386.873C737.442 379.664 734.591 366.672 734.591 346.637V106.987L839.203 359.041V359.21L839.371 359.379C841.466 363.568 844.233 367.006 847.837 369.435C851.441 371.952 855.63 373.04 860.157 373.04H867.619L869.295 369.688L1009.61 89.2164V383.853C1009.61 392.74 1012.8 400.452 1019 406.739C1025.29 413.026 1033 416.127 1041.89 416.127H1101.15V402.378L1096.37 401.29C1085.06 398.69 1077.43 395.085 1072.65 390.98C1068.12 386.704 1064.94 380.921 1063.34 373.124C1061.83 364.743 1061 353.677 1061 339.931V97.3473C1061 83.7679 1061.83 72.8709 1063.34 64.4885L1063.09 64.6564Z" fill="#010101"></path></g></svg> 