<?xml version="1.0" encoding="UTF-8"?> <svg xmlns="http://www.w3.org/2000/svg" width="80" height="44" viewBox="0 0 80 44" fill="none"><path d="M8.59154 27.1113C9.29153 28.0743 10.0583 28.9871 10.8859 29.843C11.7681 30.769 12.7794 31.5627 13.8886 32.1995H0C0.956419 31.4382 1.83013 30.5784 2.60651 29.6342C3.3993 28.6752 4.08749 27.7786 4.67127 26.9442C5.35825 25.983 5.98523 24.9802 6.54812 23.9414C7.16708 25.0369 7.84924 26.0953 8.59154 27.1113Z" fill="#1B1F24"></path><path d="M25.2752 32.1991H33.117L17.1417 0L13.4297 8.46688L25.2752 32.1991Z" fill="#1B1F24"></path><path d="M38.5859 32.322V1.04102H46.0102V32.322H38.5859Z" fill="#1B1F24"></path><path d="M66.0773 32.155C64.4224 32.1546 62.7955 31.728 61.3533 30.9164C59.8288 30.0684 58.4872 28.9268 57.4061 27.5576C56.2299 26.0673 55.3078 24.3931 54.6769 22.6024C53.9814 20.6558 53.6334 18.6021 53.6489 16.5351C53.6337 14.4715 53.9672 12.4203 54.6352 10.4678C55.2377 8.67951 56.1471 7.00987 57.3226 5.53374C58.3968 4.18501 59.723 3.05838 61.2279 2.21676C62.6576 1.41438 64.27 0.993978 65.9095 0.996102H66.2037C65.5594 1.71591 65.0413 2.53932 64.671 3.43164C64.1674 4.5908 63.7669 5.79213 63.4746 7.02166C63.1196 8.48694 62.8599 9.9737 62.6972 11.4726C62.3333 14.8361 62.3333 18.229 62.6972 21.5925C62.8598 23.0914 63.1195 24.5781 63.4746 26.0434C63.7692 27.2789 64.1696 28.4869 64.671 29.654C65.0451 30.5634 65.5625 31.407 66.2037 32.1525L66.0773 32.155Z" fill="#1B1F24"></path><path d="M80.0081 21.4355V32.1549H71.75C72.8854 31.3321 73.9459 30.4109 74.9196 29.4019C75.9251 28.3711 76.8394 27.2548 77.6516 26.0657C78.634 24.6307 79.4261 23.0743 80.0081 21.4355Z" fill="#1B1F24"></path><path d="M77.6516 7.08916C76.8394 5.90001 75.9251 4.78373 74.9196 3.75291C73.9459 2.74396 72.8854 1.82276 71.75 1H80.0081V11.7193C79.426 10.0806 78.6339 8.52421 77.6516 7.08916Z" fill="#1B1F24"></path><path d="M8.26562 43.6821V39.9668H8.76942V43.6821H8.26562ZM8.60881 41.9905V41.5299H10.7821V41.9905H8.60881ZM10.6648 43.6821V39.9668H11.1683V43.6821H10.6648Z" fill="#1B1F24"></path><path d="M16.3013 43.7321C16.052 43.7346 15.8048 43.6863 15.5747 43.5902C15.3447 43.4941 15.1365 43.3522 14.963 43.1732C14.6108 42.8097 14.4141 42.3234 14.4141 41.8173C14.4141 41.3112 14.6108 40.8249 14.963 40.4614C15.1317 40.2872 15.334 40.1488 15.5575 40.0547C16.0292 39.862 16.5577 39.862 17.0294 40.0547C17.2534 40.1492 17.4561 40.2875 17.626 40.4614C17.798 40.637 17.9344 40.8443 18.0275 41.0717C18.1727 41.4233 18.2123 41.8095 18.1414 42.1832C18.0706 42.5568 17.8923 42.9018 17.6285 43.1758C17.4568 43.3533 17.2511 43.4941 17.0234 43.5897C16.7957 43.6854 16.5507 43.7338 16.3038 43.7321H16.3013ZM16.2903 43.2503C16.5367 43.2552 16.7798 43.1913 16.992 43.0659C17.1949 42.9428 17.3606 42.7669 17.4714 42.5571C17.5902 42.3283 17.65 42.0735 17.6455 41.8157C17.6476 41.6212 17.6136 41.4281 17.5457 41.2458C17.4826 41.0789 17.3872 40.9261 17.2649 40.7961C17.1445 40.6683 16.9985 40.5671 16.8364 40.4993C16.6634 40.4276 16.4775 40.3919 16.2903 40.3946C16.0452 40.3895 15.8035 40.4525 15.592 40.5764C15.3902 40.6975 15.2257 40.8718 15.1161 41.0801C14.9966 41.3075 14.9367 41.5614 14.942 41.8183C14.9397 42.0154 14.9731 42.2113 15.0408 42.3965C15.102 42.5652 15.1967 42.7199 15.3191 42.8513C15.4396 42.9791 15.5856 43.0803 15.7476 43.1481C15.9196 43.2193 16.1042 43.254 16.2903 43.2503Z" fill="#1B1F24"></path><path d="M20.8906 40.4255V39.9648H23.9144V40.4255H20.8906ZM22.1498 43.6834V40.0753H22.6586V43.6834H22.1498Z" fill="#1B1F24"></path><path d="M27.0859 43.6821V39.9668H27.5897V43.6821H27.0859ZM27.4291 40.4274V39.9668H29.5325V40.4274H27.4291ZM27.4291 42.0066V41.562H29.3828V42.0059L27.4291 42.0066ZM27.4291 43.6821V43.2215H29.5594V43.6821H27.4291Z" fill="#1B1F24"></path><path d="M32.8125 43.6821V39.9668H33.3157V43.6821H32.8125ZM33.1551 43.6821V43.2215H35.1467V43.6821H33.1551Z" fill="#1B1F24"></path><path d="M45.2837 43.7321C45.0344 43.7338 44.7874 43.6837 44.5584 43.585C44.3351 43.4895 44.1331 43.3504 43.9643 43.1758C43.6115 42.8121 43.4141 42.3253 43.4141 41.8186C43.4141 41.3119 43.6115 40.8251 43.9643 40.4614C44.1358 40.2868 44.3408 40.1485 44.5669 40.0547C44.8174 39.9549 45.0852 39.9058 45.3549 39.9105C45.6246 39.9151 45.8906 39.9733 46.1376 40.0817C46.3832 40.1925 46.5983 40.3614 46.764 40.5738L46.4158 40.9221C46.2991 40.7512 46.1383 40.6151 45.9506 40.5282C45.7527 40.4364 45.5368 40.3898 45.3185 40.392C45.0667 40.387 44.8181 40.4498 44.5989 40.5738C44.3925 40.6927 44.2238 40.8672 44.112 41.0775C43.9967 41.3075 43.9367 41.5613 43.9367 41.8186C43.9367 42.0759 43.9967 42.3296 44.112 42.5597C44.2229 42.767 44.3871 42.9409 44.5879 43.0633C44.7932 43.186 45.0286 43.249 45.2677 43.2452C45.5041 43.2514 45.7385 43.2 45.9506 43.0955C46.1396 42.9978 46.2932 42.8432 46.3895 42.6535C46.4975 42.431 46.5518 42.1863 46.5476 41.9391L46.8525 42.1639H45.2464V41.6981H47.0737V41.7733C47.0861 42.1476 47.0081 42.5194 46.8462 42.8571C46.7072 43.1347 46.487 43.3633 46.2148 43.5124C45.9281 43.6635 45.6076 43.7391 45.2837 43.7321Z" fill="#1B1F24"></path><path d="M50.3047 43.6824V39.9671H50.8075V43.6824H50.3047ZM50.6419 42.066V41.6433H51.6479C51.8301 41.6554 52.01 41.5957 52.1486 41.4769C52.2075 41.4183 52.2532 41.348 52.2832 41.2705C52.3132 41.193 52.3268 41.1101 52.3227 41.0272C52.3251 40.9453 52.3109 40.8637 52.281 40.7874C52.2511 40.7111 52.206 40.6417 52.1486 40.5832C52.0825 40.5215 52.0042 40.474 51.919 40.4436C51.8338 40.4132 51.7435 40.4006 51.6533 40.4066H50.6419V39.9671H51.6699C51.8833 39.9624 52.0947 40.0094 52.286 40.104C52.4527 40.1879 52.5926 40.3168 52.69 40.4759C52.7861 40.6395 52.8352 40.8265 52.8315 41.0162C52.8361 41.2097 52.787 41.4007 52.69 41.5681C52.5935 41.7268 52.4532 41.8542 52.286 41.9349C52.0934 42.0252 51.8825 42.0692 51.6699 42.0634L50.6419 42.066ZM52.4454 43.6824L51.0961 42.0178L51.5723 41.8514L53.0819 43.6824H52.4454Z" fill="#1B1F24"></path><path d="M57.8141 43.7321C57.5648 43.7346 57.3174 43.6864 57.0873 43.5903C56.8572 43.4942 56.6494 43.3523 56.4759 43.1732C56.3041 42.9962 56.1678 42.7879 56.0744 42.5597C55.8815 42.0816 55.8815 41.5473 56.0744 41.0692C56.1679 40.8433 56.3031 40.6371 56.4731 40.4614C56.6418 40.2872 56.8441 40.1489 57.0675 40.0547C57.5392 39.862 58.0677 39.862 58.5394 40.0547C58.7635 40.1491 58.9663 40.2874 59.1361 40.4614C59.3081 40.637 59.4444 40.8443 59.5376 41.0717C59.6827 41.4233 59.7223 41.8095 59.6515 42.1832C59.5806 42.5568 59.4023 42.9018 59.1386 43.1758C58.9669 43.3533 58.7611 43.4941 58.5334 43.5897C58.3057 43.6854 58.0611 43.7338 57.8141 43.7321ZM57.8038 43.2503C58.05 43.2551 58.2926 43.1913 58.5046 43.0659C58.7076 42.9429 58.8733 42.767 58.9839 42.5571C59.103 42.3284 59.1629 42.0735 59.158 41.8157C59.1601 41.6212 59.1262 41.4281 59.0583 41.2458C58.9953 41.0788 58.9002 40.926 58.7778 40.7961C58.6573 40.6683 58.511 40.5672 58.349 40.4993C58.1762 40.4276 57.9908 40.392 57.8038 40.3946C57.5585 40.3894 57.3166 40.4524 57.1049 40.5764C56.903 40.6975 56.7382 40.8718 56.6287 41.0801C56.5092 41.3075 56.4493 41.5614 56.4546 41.8183C56.4522 42.0154 56.4856 42.2113 56.5534 42.3965C56.6146 42.5652 56.7093 42.7199 56.8316 42.8513C56.9522 42.9791 57.0982 43.0802 57.2602 43.1481C57.4317 43.2191 57.6163 43.2539 57.8019 43.2503H57.8038Z" fill="#1B1F24"></path><path d="M64.3362 43.7321C64.0778 43.7363 63.8229 43.6718 63.5975 43.5452C63.3838 43.4222 63.2063 43.2449 63.0833 43.0312C62.9542 42.8096 62.8878 42.5572 62.8907 42.3007V39.9609H63.3995V42.2898C63.3947 42.4674 63.4372 42.643 63.5228 42.7986C63.6015 42.9378 63.7171 43.0525 63.8569 43.1302C64.0039 43.2099 64.169 43.2504 64.3362 43.2477C64.5017 43.251 64.6649 43.2104 64.8096 43.1302C64.9469 43.0519 65.0601 42.9372 65.1362 42.7986C65.2194 42.6441 65.261 42.4705 65.2569 42.295V39.9609H65.7651V42.3059C65.7693 42.5609 65.7047 42.8123 65.5782 43.0338C65.4559 43.2449 65.2805 43.4204 65.0693 43.5426C64.8465 43.6705 64.5932 43.736 64.3362 43.7321Z" fill="#1B1F24"></path><path d="M69.1641 43.6822V39.9669H69.6675V43.6822H69.1641ZM69.5013 42.2367V41.7979H70.5133C70.6424 41.8005 70.7699 41.7711 70.885 41.7125C70.9913 41.6575 71.0805 41.5741 71.1422 41.4716C71.2038 41.3582 71.236 41.2312 71.236 41.1022C71.236 40.9731 71.2038 40.8461 71.1422 40.7327C71.0805 40.6302 70.9913 40.5468 70.885 40.4918C70.7699 40.4332 70.6424 40.4039 70.5133 40.4064H69.5013V39.9669H70.5403C70.7536 39.9637 70.9646 40.0115 71.1557 40.1064C71.333 40.1953 71.4822 40.3316 71.5867 40.5002C71.6903 40.6834 71.7449 40.8904 71.7449 41.1009C71.7449 41.3114 71.6903 41.5183 71.5867 41.7016C71.483 41.8713 71.3337 42.0084 71.1557 42.0973C70.9647 42.1924 70.7536 42.2402 70.5403 42.2367H69.5013Z" fill="#1B1F24"></path></svg> 