<svg xmlns="http://www.w3.org/2000/svg" clip-rule="evenodd" fill-rule="evenodd" height="681" viewBox="0 .03 258.93 70.56" width="2500"><path d="m76.9 50.68c0-5.98 4.05-10.39 9.79-10.39 2.67 0 4.63.77 6.04 1.68v5.43h-.05c-1.49-1.24-3.36-2.15-5.35-2.15-2.81 0-4.82 2.21-4.82 5.38 0 3.42 2.09 5.46 4.88 5.46 2.18 0 4.05-.88 5.6-2.04l.11.05-.61 5.38c-1.52.88-3.39 1.54-6.06 1.54-5.35 0-9.51-3.97-9.51-10.34m67.29-10.06h5.4v20.07h-5.4zm20.15 20.07h-8.66v-20.07h8.57c4.47 0 6.92 2.1 6.92 5.32 0 1.85-.97 3.36-2.76 4.33 2.04.85 3.42 2.37 3.42 4.66 0 3.69-3.17 5.76-7.5 5.76m-3.52-11.88h2.65c1.66 0 2.62-.83 2.62-2.18s-.96-1.98-2.51-1.98h-2.76zm2.92 7.91c1.76 0 2.81-.83 2.81-2.21 0-1.49-1.05-2.2-2.89-2.2h-2.84v4.41zm21.53 3.97h-8.66v-20.07h8.57c4.47 0 6.92 2.1 6.92 5.32 0 1.85-.96 3.36-2.76 4.33 2.04.85 3.42 2.37 3.42 4.66 0 3.69-3.17 5.76-7.5 5.76m-3.52-11.88h2.65c1.65 0 2.62-.83 2.62-2.18s-.96-1.98-2.51-1.98h-2.76zm2.93 7.91c1.76 0 2.81-.83 2.81-2.21 0-1.49-1.05-2.2-2.89-2.2h-2.84v4.41zm12.58-16.1h13.32l.72 4.55h-8.66v3.39h7.28v4.02h-7.28v3.56h8.74l-.72 4.55h-13.4zm42.74 0h5.62l8.1 10.58-.06-10.58h5.27v20.12h-4.38l-9.35-12.16.06 12.1h-5.27v-20.07zm-100.03 20.07-5.99-7.11c2.43-1.06 3.95-3.12 3.95-6.04 0-4.66-3.28-6.92-8.33-6.92h-7.44v20.07h5.43v-6.3h.82l5.14 6.3zm-12.46-10.2v-5.51h1.96c1.98 0 3.14.94 3.14 2.67s-1.19 2.84-3.2 2.84zm93.65 6.56-1.27 3.64h-5.54l7.66-20.12h6.34l7.66 20.12h-5.54l-1.27-3.64h-8.05zm6.72-4.24-2.7-7.58-2.7 7.58zm-124.79 4.24-1.27 3.64h-5.54l7.66-20.12h6.34l7.66 20.12h-5.54l-1.27-3.64h-8.05zm6.72-4.24-2.7-7.58-2.7 7.58zm-2.89-21.81c-5.93 0-9.98-4.49-9.98-10.42s4.16-10.48 10.01-10.48 9.98 4.49 9.98 10.42-4.13 10.47-10.01 10.47m-.03-16.06c-2.56 0-4.41 2.23-4.41 5.6s1.82 5.65 4.47 5.65 4.44-2.21 4.44-5.6-1.88-5.65-4.49-5.65m23.72 7.89v7.77h-5.4v-7.75l-6.97-12.32h6.15l3.67 7.3 3.67-7.3h5.84l-6.95 12.29zm31.4-12.3h5.43v15.27h8.7l-.76 4.8h-13.37zm-66.98 20.07-5.99-7.11c2.43-1.06 3.95-3.12 3.95-6.04 0-4.66-3.28-6.92-8.32-6.92h-7.44v20.07h5.43v-6.3h.82l5.14 6.3h6.42zm-12.46-10.2v-5.51h1.96c1.98 0 3.14.94 3.14 2.67s-1.18 2.84-3.2 2.84zm60.74 6.56-1.27 3.64h-5.54l7.66-20.12h6.34l7.66 20.12h-5.54l-1.27-3.64h-8.05zm6.72-4.24-2.7-7.58-2.7 7.58zm-148.04-.36-2-20.68 12.23 8.83-4.33 4.82 6.88 4.73 10.32-4.61-3.98-5.13 10.59-10.28 10.59 10.27-3.98 5.13 10.32 4.61 6.88-4.73-4.33-4.82 12.22-8.82-2 20.68zm.36 3.73.66 6.88h22.03v23.81h-10.72c-2.39 0-4.46-1.84-4.46-3.99s2.28-4.01 4.79-5.44l-10.99-7.61 2.02 20.97 26.01 9.89 26.01-9.89 2.02-20.97-10.99 7.61c2.51 1.44 4.79 3.3 4.79 5.44s-2.07 3.99-4.46 3.99h-10.71v-23.81h22.02l.67-6.88z" fill="#001871" fill-rule="nonzero"></path></svg>