<svg xmlns="http://www.w3.org/2000/svg" width="1735" height="551" viewBox="0 0 1735 551" fill="none"><g clip-path="url(#clip0_2005_77)"><path fill-rule="evenodd" clip-rule="evenodd" d="M391 2.421C379.777 5.015 369.93 8.231 361.087 12.191C354.613 15.09 340.59 23.323 336.026 26.905C333.555 28.844 333.554 28.85 335.521 31.023C338.44 34.249 352.846 43.6 359.28 46.445L364.894 48.928L369.563 41.237C376.454 29.887 382.152 22.742 393.875 10.75C401.057 3.404 403.77 0.036 402.442 0.113C401.374 0.175 396.225 1.213 391 2.421ZM440.254 9.25C450.503 19.437 459.408 30.673 465.959 41.681C470.046 48.549 470.347 48.819 472.866 47.869C477.249 46.215 487.073 40.459 494.814 35.008C503.34 29.005 503.418 29.381 492.159 22.17C476.566 12.182 463.645 6.891 444.043 2.466C438.035 1.11 432.631 0 432.034 0C431.437 0 435.136 4.162 440.254 9.25ZM405.89 11.44C395.636 20.383 383.502 35.181 376.601 47.159L373.917 51.817L377.208 52.863C385.929 55.633 397.878 58.13 405.056 58.684L413 59.296V32.648C413 17.992 412.804 6 412.564 6C412.324 6 409.321 8.448 405.89 11.44ZM423 32.563V59.295L431.265 58.66C441.057 57.907 461 53.06 461 51.432C461 50.492 453.564 38.628 449.6 33.243C444.293 26.034 432.301 13.199 426.809 8.849L423 5.832V32.563ZM319.399 42.486C301.139 63.156 290.676 86.97 287.43 115.25L286.77 121H315.813H344.856L345.5 115.25C347.672 95.852 351.25 80.89 357.456 65.259C359.353 60.481 360.814 56.556 360.703 56.536C358.368 56.122 340.886 46.332 335.209 42.26C330.997 39.237 327.03 36.565 326.394 36.321C325.758 36.077 322.61 38.851 319.399 42.486ZM500 42.16C495.325 45.472 487.9 49.993 483.5 52.207C479.1 54.421 475.361 56.357 475.191 56.508C475.022 56.66 475.63 58.52 476.543 60.642C482.827 75.242 488.374 97.207 489.576 112.25L490.275 121H519.138H548V117.676C548 111.598 544.867 95.615 541.943 86.777C538.39 76.042 534.382 67.922 527.49 57.5C522.405 49.81 510.531 35.926 509.161 36.069C508.798 36.106 504.675 38.847 500 42.16ZM365.769 68.692C363.852 73.536 361.297 81.214 360.091 85.754C357.996 93.647 355.061 112.451 355.02 118.25L355 121H384H413V94.5V68H408.631C401.196 68 378.576 63.461 370.426 60.333C369.722 60.063 367.869 63.389 365.769 68.692ZM456.5 62.651C447.773 65.28 432.691 67.99 426.75 67.996L423 68V94.5V121H451.647H480.294L479.725 111.75C479.412 106.662 478.413 98.9 477.506 94.5C475.101 82.847 466.894 59.849 465.237 60.121C464.831 60.187 460.9 61.325 456.5 62.651ZM287.536 136.25C289.914 159.645 299.247 182.822 313.869 201.647C322.502 212.76 325.659 215.759 327.369 214.467C333.12 210.12 346.858 201.564 353 198.503C357.125 196.447 360.589 194.692 360.697 194.603C360.805 194.513 359.368 190.628 357.504 185.97C352.828 174.286 349.491 162.299 347.626 150.489C346.027 140.372 345.107 133.526 345.038 131.25C345.008 130.28 338.503 130 315.95 130H286.901L287.536 136.25ZM355.445 137.75C356.853 153.808 360.006 167.164 366.2 183.319C368.616 189.619 369.519 191.008 370.849 190.469C376.39 188.226 396.284 183.975 403.949 183.396L413 182.713V156.357V130H383.883H354.765L355.445 137.75ZM423 156.352V182.704L430.801 183.305C439.186 183.952 453.757 186.932 460.906 189.462C463.329 190.32 465.41 190.904 465.529 190.761C466.659 189.402 469.778 182.079 472.209 175.076C476.399 163.006 478.909 151.102 479.659 139.75L480.302 130H451.651H423V156.352ZM489.223 141.811C487.823 155.809 483.633 173.056 478.628 185.425C476.641 190.333 475.125 194.419 475.258 194.505C475.391 194.59 479.55 196.808 484.5 199.433C489.45 202.059 496.598 206.448 500.386 209.187C504.173 211.926 507.823 214.379 508.497 214.637C510.091 215.249 520.442 203.926 526.379 195.076C532.739 185.597 539.286 172.16 542.411 162.171C545.21 153.225 548 138.848 548 133.369V130H519.202H490.403L489.223 141.811ZM968.486 167.186C968.212 167.909 968.101 247.025 968.242 343L968.5 517.5H972H975.5V342V166.5L972.242 166.186C970.228 165.992 968.796 166.374 968.486 167.186ZM5.04154 173.963C15.2545 188.004 25.4205 196.183 34.8925 197.98C38.3095 198.628 74.3535 199 133.702 199C196.193 199 227.772 199.343 229.066 200.035C231.654 201.421 231.515 204.526 228.777 206.443C226.805 207.825 216.225 208 134.777 208C84.2995 208 42.9995 208.38 42.9995 208.845C42.9995 209.31 44.8105 212.493 47.0245 215.918C51.7225 223.186 58.9415 230.676 64.8365 234.397C73.8185 240.067 73.0355 240.023 164.871 239.989C228.438 239.964 249.595 240.249 250.67 241.141C252.747 242.865 251.885 246.256 249 247.71C247.05 248.693 228.384 248.974 164.193 248.985L81.8865 249L83.6925 252.128C86.5945 257.152 98.5915 269.53 103.796 272.869C114.705 279.869 109.345 279.447 194.331 280C267.57 280.477 271.225 280.586 272.512 282.347C274.225 284.69 273.561 286.423 270.398 287.865C268.612 288.678 247.514 289 195.953 289C139.049 289 124.003 289.261 124.015 290.25C124.023 290.938 126.257 294.518 128.978 298.206C137.09 309.202 149.178 317.437 160.799 319.884C164.422 320.647 189.304 321 239.461 321C320.69 321 321.856 320.923 335.184 314.712C344.023 310.593 353.412 303.643 358.457 297.487C363.288 291.592 369 282.08 369 279.932C369 278.85 367.121 277.445 363.75 276.006C319.509 257.13 287.102 229.585 271.72 197.782C267.468 188.992 264.475 180.809 262.016 171.25L260.923 167H130.45H-0.0224609L5.04154 173.963ZM573.557 170.548C572.252 177.505 567.694 189.651 562.765 199.303C551.244 221.868 534.581 239.516 509 256.244C499.575 262.408 474.012 275.714 468.25 277.455C465.31 278.343 465.392 279.077 469.25 286.333C476.261 299.52 491.532 312.138 507.024 317.543L515.5 320.5L592 320.79C677.474 321.114 677.409 321.119 688.625 314.401C695.72 310.152 703.881 302.343 708.555 295.331C710.45 292.487 712 289.9 712 289.581C712 289.261 679.25 289 639.223 289C574.972 289 566.185 288.818 564.223 287.443C561.561 285.579 561.326 282.544 563.75 281.357C564.712 280.886 599.948 280.275 642.052 280L718.606 279.5L726.28 275.707C731.349 273.201 736.096 269.803 740.265 265.695C745.855 260.187 753 251.14 753 249.57C753 249.256 716.078 249 670.95 249C599.359 249 588.525 248.806 585.95 247.474C582.872 245.882 582.383 244.525 583.978 242C584.805 240.692 596.136 240.436 672.713 240L760.5 239.5L766.25 236.677C773.965 232.888 781.884 225.453 788.098 216.162L793.223 208.5L700.861 208C650.063 207.725 607.747 207.128 606.827 206.673C604.289 205.417 603.761 202.921 605.604 200.884C607.181 199.142 611.791 199.044 704.379 198.778L801.5 198.5L807.5 195.573C814.305 192.253 824.66 182.472 830.325 174.013C832.346 170.996 834 168.183 834 167.763C834 167.344 775.55 167 704.111 167H574.223L573.557 170.548ZM1137 169.288C1137 170.132 1117.81 272.504 1110.53 310.5C1108.11 323.163 1108.06 323 1114.42 323H1119.83L1120.81 318.25C1121.34 315.637 1123.27 305.063 1125.08 294.75L1128.38 276H1144.94H1161.51L1165.51 299.25L1169.5 322.5L1175.25 322.8C1181.99 323.151 1181.73 323.989 1179.04 310.389C1177.96 304.95 1172.99 278.45 1167.99 251.5C1162.99 224.55 1157.84 196.875 1156.54 190C1155.24 183.125 1153.87 175.588 1153.5 173.25L1152.82 169H1144.91C1140.56 169 1137 169.13 1137 169.288ZM1502.47 169.864C1502.21 170.122 1502 181.958 1502 196.167C1502 210.375 1501.63 222 1501.17 222C1500.72 222 1499.3 220.886 1498.02 219.525C1494.31 215.574 1488.12 213.711 1480.18 214.16C1471.11 214.672 1466.18 217.893 1462.26 225.879L1459.5 231.5V269.027V306.555L1462.05 311.518C1463.6 314.514 1466.3 317.668 1468.87 319.475C1472.45 321.995 1474.27 322.526 1480.4 322.835C1488.46 323.242 1493.35 321.501 1497.92 316.597C1499.26 315.169 1500.69 314 1501.12 314C1501.54 314 1502.02 315.913 1502.19 318.25C1502.5 322.479 1502.52 322.501 1506.75 322.807L1511 323.115V246.017V168.919L1506.97 169.157C1504.75 169.288 1502.73 169.606 1502.47 169.864ZM1725.65 169.686C1725.29 170.042 1725 181.958 1725 196.167C1725 210.375 1724.62 222 1724.15 222C1723.69 222 1722.45 221.036 1721.4 219.859C1716.16 213.96 1702.6 212.08 1694.3 216.099C1688.98 218.671 1684.41 225.008 1682.95 231.812C1682.27 234.965 1681.99 249.544 1682.19 271.671L1682.5 306.56L1685.05 311.521C1688.77 318.733 1694.29 322.296 1702.56 322.823C1710.62 323.336 1716.28 321.379 1721.07 316.42L1724.5 312.865L1725 317.683L1725.5 322.5H1730H1734.5V246V169.5L1730.4 169.269C1728.14 169.142 1726 169.329 1725.65 169.686ZM1535.21 192.25L1535.5 200.5L1540.25 200.805L1545 201.11V192.555V184H1539.96H1534.92L1535.21 192.25ZM1571.84 185.75C1571.76 186.162 1571.58 191.675 1571.45 198C1571.32 204.325 1571.17 210.554 1571.11 211.843C1571.01 214.046 1570.67 214.165 1565.5 213.843L1560 213.5L1560 217.7L1560 221.9L1565.73 222.2L1571.47 222.5L1571.48 268.544C1571.5 311.443 1571.62 314.778 1573.33 317.377C1575.96 321.399 1580.7 323 1589.97 323H1598V318.5V314H1591.5C1580.25 314 1581 317.443 1581 266V222H1589.5H1598L1598 217.75L1598 213.5H1589.75H1581.5L1581.22 199.25L1580.94 185H1576.47C1574.01 185 1571.93 185.338 1571.84 185.75ZM1140.11 211.75C1137.78 224.813 1134.77 241.336 1133.43 248.469C1129.78 267.952 1128.49 266 1145 266C1153.15 266 1159 265.604 1159 265.053C1159 264.532 1156.07 247.269 1152.5 226.69C1148.92 206.111 1146 188.987 1146 188.637C1146 188.287 1145.63 188 1145.18 188C1144.72 188 1142.44 198.688 1140.11 211.75ZM395.84 193.543C387.071 194.909 376.073 197.69 374.811 198.861C373.717 199.875 382.878 214.168 390.848 223.882C397.159 231.574 407.81 242.015 411.75 244.371C412.737 244.961 413 239.538 413 218.559V192L408.75 192.097C406.413 192.15 400.603 192.801 395.84 193.543ZM423 218.535C423 249.481 421.845 247.97 435.08 234.338C447.725 221.311 462.668 200.149 460.267 198.665C457.195 196.767 432.28 192 425.428 192H423V218.535ZM354.931 207.124C350.769 209.368 344.118 213.567 340.151 216.456L332.94 221.709L340.22 226.687C355.345 237.03 369.52 243.292 387.054 247.379C406.502 251.911 405.898 252.542 393.854 240.267C383.138 229.345 373.349 216.977 368.287 207.965C366.754 205.235 364.825 203.012 364 203.023C363.175 203.035 359.094 204.88 354.931 207.124ZM468.386 205.75C459.583 220.336 442.124 241.927 435.073 246.948C433.383 248.152 432 249.501 432 249.948C432 251.222 446.409 248.266 458.5 244.512C470.935 240.65 485.946 233.355 495.53 226.516C499.089 223.977 502 221.708 502 221.476C502 219.592 474.201 203 471.045 203C470.496 203 469.299 204.238 468.386 205.75ZM1368.44 213.922C1365.65 215.518 1360.84 219.564 1357.74 222.912C1354.64 226.261 1351.86 229 1351.55 229C1351.25 229 1351 225.625 1351 221.5V214H1346.5H1342V268.5V323H1346.5H1351V284.39V245.78L1354.04 240.14C1355.71 237.038 1357.85 233.589 1358.79 232.475C1361.59 229.155 1367.25 225.328 1371.25 224.046L1375 222.845V216.922C1375 213.665 1374.66 211.004 1374.25 211.009C1373.84 211.015 1371.22 212.325 1368.44 213.922ZM1402.06 214.301C1396.51 216.071 1390.45 222.655 1388.6 228.932C1386.34 236.608 1386.23 299.048 1388.47 306.586C1390.07 311.961 1394.99 317.472 1401 320.605C1405.92 323.169 1420.09 323.167 1425 320.601C1434.69 315.535 1438.04 309.381 1438.76 295.31L1439.29 285H1434.14H1429L1429 293.75C1429 307.672 1425.03 313.049 1414.26 313.74C1407.3 314.186 1402.62 312.111 1399.27 307.102C1397.13 303.896 1397 302.727 1397 286.352V269H1418.13H1439.26L1438.81 250.237C1438.39 232.752 1438.19 231.094 1435.81 225.896C1433.06 219.891 1429.61 216.834 1422.94 214.479C1418.13 212.782 1407.12 212.689 1402.06 214.301ZM1535.36 214.5C1535.15 215.05 1535.1 239.575 1535.24 269L1535.5 322.5H1540H1544.5V268.114V213.728L1540.12 213.614C1537.71 213.551 1535.57 213.95 1535.36 214.5ZM1625.24 214.286C1620.31 216.147 1615.26 220.602 1612.75 225.295C1610.53 229.446 1610.5 229.997 1610.5 268.078V306.657L1613.5 311.472C1623.61 327.696 1651.71 326.18 1659.33 309C1660.7 305.896 1661.47 301.475 1661.79 294.75L1662.27 285H1657.25H1652.23L1651.83 294.973C1651.51 303.01 1651.04 305.484 1649.39 307.723C1643.08 316.328 1628.21 315.988 1622.27 307.102C1620.13 303.896 1620 302.727 1620 286.372V269.041L1640.75 268.77L1661.5 268.5L1661.78 255C1662.3 230.562 1659.32 221.1 1649.52 216.055C1645.59 214.032 1642.89 213.454 1636.53 213.278C1632.03 213.153 1627.07 213.596 1625.24 214.286ZM1211 215.59C1205.42 218.001 1200.12 223.842 1198.47 229.414C1196.4 236.389 1196.32 299.439 1198.38 306.269C1200.29 312.603 1203.31 316.512 1208.81 319.746C1213.04 322.229 1214.43 322.5 1223 322.5C1231.66 322.5 1232.97 322.238 1237.85 319.535C1241.84 317.328 1243.94 315.284 1246.09 311.535C1248.86 306.709 1248.98 305.97 1248.99 293.75L1249 281H1244.6H1240.21L1239.85 292.795C1239.58 302.05 1239.11 305.182 1237.7 307.342C1234.79 311.769 1230.21 313.992 1223.98 313.996C1216.36 314.001 1212.11 311.587 1209.06 305.511C1206.69 300.791 1206.61 299.904 1206.2 273.079C1205.75 243.378 1206.64 232.303 1209.8 228.064C1216.64 218.882 1231.81 219.846 1236.59 229.766C1237.77 232.228 1238.53 236.65 1238.81 242.75L1239.24 252H1244.26H1249.29L1248.69 242.25C1248.36 236.887 1247.52 230.708 1246.81 228.518C1245.06 223.094 1238.49 216.482 1233.5 215.11C1227.73 213.526 1215.16 213.794 1211 215.59ZM1283.65 215.027C1278.65 216.524 1274.13 220.351 1271.27 225.5L1268.5 230.5L1268.2 265.5C1268 288.792 1268.27 302.005 1269.01 305C1271.69 315.88 1279.4 322.008 1291.36 322.768C1303.82 323.56 1312.82 319.426 1317.55 310.728C1319.91 306.393 1320.28 304.395 1320.75 293.414L1321.29 281H1316.14H1311L1310.99 290.75C1310.99 302.418 1309.94 306.728 1306.23 310.275C1301.17 315.124 1290.29 315.481 1284.01 311.004C1278.25 306.906 1277.89 304.115 1278.21 266C1278.5 231.698 1278.51 231.481 1280.83 228.235C1283.92 223.898 1288.3 221.769 1294.13 221.769C1304.61 221.769 1309.29 228.019 1309.85 242.75L1310.19 252H1315.24H1320.29L1319.69 242.25C1318.98 230.684 1317.73 226.34 1313.66 221.41C1309.19 215.985 1304.07 214.031 1294.5 214.108C1290.1 214.143 1285.22 214.557 1283.65 215.027ZM1407.62 222.034C1406.03 222.509 1403.61 223.933 1402.24 225.198C1397.85 229.242 1397 232.862 1397 247.468V261H1413.09H1429.19L1428.84 246.75C1428.44 230.012 1427.28 226.934 1420.01 223.25C1415.36 220.89 1412.41 220.601 1407.62 222.034ZM1630.62 222.034C1629.03 222.509 1626.61 223.933 1625.24 225.198C1620.85 229.242 1620 232.862 1620 247.468V261H1636.13H1652.25L1651.82 246.676C1651.32 229.881 1650.19 226.887 1643.01 223.25C1638.36 220.89 1635.41 220.601 1630.62 222.034ZM1478.5 223.412C1474.82 225.046 1471.49 228.568 1470.07 232.315C1469.39 234.107 1469 247.393 1469 268.853C1469 301.858 1469.05 302.67 1471.25 306.964C1477.14 318.443 1492.8 317.378 1499.24 305.063L1502 299.772V270.567C1502 247.31 1501.69 240.318 1500.47 236.229C1497.11 224.889 1487.62 219.357 1478.5 223.412ZM1702 223.07C1700.63 223.648 1698.45 225.106 1697.15 226.31C1692.04 231.081 1692 231.463 1692.02 268.7C1692.03 302.868 1692.07 303.571 1694.27 307.396C1700.92 318.996 1716.93 316.832 1723.1 303.5C1724.77 299.909 1724.96 296.613 1724.98 271.299C1724.99 254.871 1724.55 241.006 1723.92 238.086C1722.73 232.534 1719.81 227.644 1716 224.848C1712.94 222.604 1705.39 221.645 1702 223.07ZM407.564 371.75C405.435 382.613 403.489 392.063 403.239 392.75C402.885 393.728 408.032 394 426.893 394C454.817 394 451.967 392.315 449.514 407.376C448.696 412.394 446.651 425.5 444.969 436.5C443.287 447.5 439.906 469.492 437.455 485.372C435.005 501.251 433 514.871 433 515.638C433 516.803 437.483 516.988 460.232 516.766L487.464 516.5L488.623 508.5C492.08 484.65 505.111 398.17 505.538 396.25L506.038 394H529.018C541.658 394 552 393.856 552 393.679C552 393.503 553.8 384.422 556 373.5C558.2 362.578 560 353.272 560 352.821C560 352.369 526.573 352 485.717 352H411.435L407.564 371.75ZM145.042 393.25C140.457 415.387 132.952 451.5 128.364 473.5C123.777 495.5 120.018 514.288 120.012 515.25C120.001 516.875 121.971 517 147.481 517H174.962L175.479 514.75C175.763 513.513 177.106 507.1 178.464 500.5C179.822 493.9 187.042 458.8 194.508 422.5C201.975 386.2 208.321 355.712 208.609 354.75C209.101 353.113 207.341 353 181.256 353H153.378L145.042 393.25ZM272.5 392.235C261.5 413.822 242.69 450.731 230.699 474.257L208.899 517.032L236.644 516.766L264.389 516.5L268.43 507.235L272.471 497.969L299.963 498.235L327.454 498.5L328.142 503C328.52 505.475 329.121 509.637 329.476 512.25L330.123 517H355.561C379.438 517 381 516.889 381 515.191C381 513.685 371.364 466.921 360.458 415.5C359.058 408.9 355.565 392.25 352.694 378.5L347.475 353.5L319.987 353.244L292.5 352.988L272.5 392.235ZM600.758 399.767C587.7 425.47 568.933 462.363 559.052 481.75L541.089 517H568.602H596.116L600.525 507.5L604.934 498H632.352H659.77L660.414 503.75C660.768 506.913 661.31 511.188 661.617 513.25L662.176 517H688.195C708.585 517 714.115 516.73 713.76 515.75C713.511 515.063 705.701 478.164 696.404 433.754L679.5 353.008L652 353.021L624.5 353.034L600.758 399.767ZM1137 363.947C1137 364.469 1134.99 375.381 1132.53 388.197C1130.07 401.014 1126.73 418.7 1125.1 427.5C1123.47 436.3 1119.19 459.177 1115.57 478.338C1111.96 497.499 1109 514.037 1109 515.088C1109 516.735 1109.75 517 1114.42 517H1119.83L1120.81 512.25C1121.34 509.637 1123.27 499.052 1125.08 488.727L1128.39 469.953L1144.94 470.227L1161.5 470.5L1165.5 493.5L1169.5 516.5L1175.25 516.8C1178.41 516.965 1181 516.721 1181 516.258C1181 515.292 1177.39 495.715 1162.91 418.25L1152.58 363H1144.79C1140.51 363 1137 363.426 1137 363.947ZM1424.71 379.62C1424.32 380.012 1424 386.558 1424 394.167V408H1417.94H1411.88L1412.19 412.25L1412.5 416.5L1418.25 416.8L1424 417.1V463.415C1424 508.619 1424.05 509.793 1426.05 512.341C1428.8 515.836 1433.95 517.196 1443 516.815L1450.5 516.5V512.5V508.5L1443.5 508C1439.65 507.725 1435.94 507.136 1435.25 506.691C1434.28 506.064 1434 495.844 1434 461.191L1434 416.5H1442.25H1450.5L1450.81 412.25L1451.11 408H1442.58H1434.05L1433.78 393.75L1433.5 379.5L1429.46 379.203C1427.24 379.04 1425.11 379.227 1424.71 379.62ZM1142.5 391.75C1141.55 397.113 1138.42 414.55 1135.56 430.5L1130.35 459.5L1144.31 459.778C1151.99 459.931 1158.49 459.845 1158.75 459.587C1159 459.329 1156.87 445.479 1154.01 428.809C1146.77 386.585 1145.89 382 1145.01 382C1144.58 382 1143.45 386.387 1142.5 391.75ZM642.163 409.108C636.079 423.267 623.468 452.291 621.411 456.871C620.085 459.825 619 462.412 619 462.621C619 462.829 626.809 463 636.354 463H653.711L651.833 450.75C650.8 444.012 648.847 431.119 647.492 422.098C646.138 413.078 644.809 405.476 644.539 405.207C644.27 404.937 643.201 406.693 642.163 409.108ZM299.724 432.75C293.341 447.462 287.819 460.288 287.453 461.25C286.834 462.874 288.013 463 303.893 463C320.478 463 321 462.937 321 460.948C321 459.819 319.2 447.356 317 433.253C314.8 419.149 313 407.248 313 406.805C313 403.286 309.756 409.625 299.724 432.75ZM1371.72 407.07C1366.64 408.294 1363 410.277 1360.08 413.405C1356.77 416.944 1356 416.679 1356 412V408H1351.5H1347V462.5V517H1351.5H1356V472.078V427.155L1359.25 422.916C1363.41 417.491 1368.73 414.733 1375.04 414.733C1380.47 414.733 1384 416.54 1386.74 420.719C1388.35 423.176 1388.52 427.473 1388.79 470.205L1389.07 517H1393.54H1398L1397.98 469.25C1397.96 425.06 1397.82 421.202 1396.12 417.5C1395.11 415.3 1393.41 412.73 1392.35 411.788C1387.79 407.734 1378.12 405.525 1371.72 407.07ZM1211.49 408.865C1206.3 411.223 1201.31 416.959 1200.3 421.729C1199.86 423.803 1199.5 441.925 1199.5 462C1199.5 494.508 1199.69 499.001 1201.27 503.08C1204.56 511.62 1212.03 516.271 1222.22 516.127C1228.2 516.043 1232.05 514.599 1237.83 510.267L1241.17 507.77L1240.83 520.308C1240.52 532.059 1240.34 533.015 1238 535.554C1228.67 545.666 1210.2 543.331 1208.35 531.808C1207.74 528 1207.74 528 1202.86 528H1197.98L1198.61 532.25C1200.05 541.886 1205.47 547.714 1215.14 550.033C1225.95 552.626 1240.05 548.732 1245.44 541.666C1250.96 534.434 1251 533.874 1251 468.341V408H1246H1241V411.589V415.178L1237.75 412.437C1235.96 410.93 1233.05 409.09 1231.28 408.348C1226.64 406.405 1216.31 406.675 1211.49 408.865ZM1287.31 409.038C1280.89 411.581 1276.56 416.376 1274.54 423.167C1272.2 431.066 1272.28 494.525 1274.64 501.464C1278.18 511.841 1288.61 517.787 1301.46 516.755C1308.77 516.168 1314.55 513.419 1318.91 508.448C1323.39 503.345 1324.12 500.96 1324.74 489.25L1325.29 479H1320.14H1315V487.532C1315 496.996 1313.7 501.172 1309.55 505C1307.13 507.227 1305.98 507.5 1298.94 507.5C1291.22 507.5 1290.95 507.418 1287.48 503.948C1283.03 499.5 1281.8 492.837 1282.21 475.5L1282.5 463.5L1303.88 463.23L1325.26 462.959L1324.72 444.73C1324.42 434.703 1323.66 424.8 1323.03 422.723C1321.56 417.856 1316.78 412.444 1311.59 409.775C1305.58 406.682 1294.14 406.335 1287.31 409.038ZM1217.22 416.988C1213.95 418.472 1212.47 419.946 1210.99 423.216C1209.18 427.19 1209.04 429.96 1209.04 461.5C1209.04 492.765 1209.2 495.837 1210.94 499.684C1215.53 509.789 1230.97 509.554 1238.02 499.272L1240.5 495.65L1240.79 462.575C1240.95 444.384 1240.83 428.476 1240.52 427.225C1239.59 423.493 1233.13 417.13 1229.15 416.025C1224.05 414.607 1222.12 414.763 1217.22 416.988ZM1293.68 416.416C1284.9 419.624 1283.01 423.807 1282.26 441.687L1281.7 455H1298.44H1315.19L1314.84 440.75C1314.55 428.613 1314.2 425.986 1312.46 423.035C1308.77 416.746 1300.63 413.878 1293.68 416.416Z" fill="black"></path></g><defs><clipPath id="clip0_2005_77"><rect width="1735" height="551" fill="white"></rect></clipPath></defs></svg>